<?xml version="1.0"?>
<svg width="105" height="40" xmlns="http://www.w3.org/2000/svg" xmlns:svg="http://www.w3.org/2000/svg">
 <g class="layer">
  <title>Layer 1</title>
  <path d="m52,33.18a9.32,9.32 0 0 1 -3.65,-0.66a7.31,7.31 0 0 1 -2.65,-1.85a7.67,7.67 0 0 1 -1.6,-2.83a11.72,11.72 0 0 1 -0.53,-3.62a10.94,10.94 0 0 1 0.58,-3.63a8.58,8.58 0 0 1 1.64,-2.86a7.34,7.34 0 0 1 2.59,-1.88a8.4,8.4 0 0 1 3.42,-0.68a13.61,13.61 0 0 1 2.32,0.2a10.66,10.66 0 0 1 2.21,0.63l-0.69,2.6a7.42,7.42 0 0 0 -1.6,-0.53a9.06,9.06 0 0 0 -1.94,-0.2q-2.58,0 -3.95,1.62q-1.37,1.62 -1.36,4.73a9.69,9.69 0 0 0 0.31,2.54a5.24,5.24 0 0 0 1,1.99a4.41,4.41 0 0 0 1.73,1.27a6.64,6.64 0 0 0 2.58,0.45a9.83,9.83 0 0 0 2.22,-0.23c0.53,-0.1 1.05,-0.27 1.55,-0.49l0.43,2.58c-0.24,0.13 -0.5,0.24 -0.76,0.31a10.59,10.59 0 0 1 -1.12,0.26q-0.63,0.12 -1.36,0.2c-0.45,0.06 -0.91,0.08 -1.36,0.09m12.39,-9.86c0.74,0.58 1.44,1.2 2.1,1.88q1.1,1.13 2.18,2.43q1.08,1.31 2.04,2.65a29.5,29.5 0 0 1 1.62,2.5l-3.63,0a27.66,27.66 0 0 0 -1.6,-2.36q-0.91,-1.21 -1.9,-2.32a27.06,27.06 0 0 0 -2.02,-2.03c-0.62,-0.57 -1.27,-1.08 -1.95,-1.56l0,8.27l-3.05,0l0,-25.13l3.07,-0.53l0,15.7l1.76,-1.75q0.96,-0.96 1.88,-1.96q0.93,-0.99 1.75,-1.9q0.83,-0.9 1.43,-1.6l3.62,0q-0.76,0.82 -1.65,1.81q-0.89,0.99 -1.9,1.99q-0.96,1 -1.93,2.02l-1.81,1.9m14.2,7.23q1.09,0 1.93,-0.05c0.47,-0.02 0.94,-0.08 1.41,-0.18l0,-5.13c-0.35,-0.14 -0.71,-0.23 -1.08,-0.28a12.07,12.07 0 0 0 -1.81,-0.11a11.58,11.58 0 0 0 -1.47,0.1a4.53,4.53 0 0 0 -1.42,0.41c-0.42,0.2 -0.79,0.49 -1.08,0.86c-0.3,0.41 -0.45,0.92 -0.43,1.43q0,1.66 1.06,2.3a5.51,5.51 0 0 0 2.87,0.64l0.02,0.01zm-0.27,-15.41a8.92,8.92 0 0 1 3.13,0.48a5.07,5.07 0 0 1 2.05,1.36c0.52,0.6 0.9,1.31 1.1,2.09a10.09,10.09 0 0 1 0.34,2.66l0,10.74l-1.11,0.18q-0.7,0.12 -1.6,0.21q-0.9,0.1 -1.94,0.18q-1.04,0.08 -2.07,0.08a11.33,11.33 0 0 1 -2.67,-0.29a5.99,5.99 0 0 1 -2.12,-0.95c-0.6,-0.44 -1.08,-1.02 -1.38,-1.7a5.96,5.96 0 0 1 -0.5,-2.55a4.9,4.9 0 0 1 0.58,-2.44a4.61,4.61 0 0 1 1.57,-1.66a7.25,7.25 0 0 1 2.32,-0.9a12.61,12.61 0 0 1 2.78,-0.3q0.45,0 0.95,0.05l0.94,0.13l0.78,0.15l0.45,0.1l0,-0.87a6.94,6.94 0 0 0 -0.17,-1.5c-0.1,-0.48 -0.3,-0.93 -0.59,-1.32a3.02,3.02 0 0 0 -1.17,-0.91a4.63,4.63 0 0 0 -1.94,-0.35a14.54,14.54 0 0 0 -2.66,0.21c-0.58,0.1 -1.15,0.25 -1.7,0.46l-0.36,-2.55c0.64,-0.24 1.3,-0.41 1.98,-0.51a17.34,17.34 0 0 1 3.01,-0.25m9,0.9q1.05,-0.27 2.8,-0.56a24.32,24.32 0 0 1 4.03,-0.3a8.72,8.72 0 0 1 3.42,0.58a5.33,5.33 0 0 1 2.17,1.62c0.56,0.74 0.95,1.6 1.14,2.5a14.5,14.5 0 0 1 0.33,3.2l0,9.66l-3.07,0l0,-8.99c0.01,-0.9 -0.06,-1.82 -0.21,-2.72a4.74,4.74 0 0 0 -0.7,-1.82a2.82,2.82 0 0 0 -1.33,-1.01a5.82,5.82 0 0 0 -2.05,-0.31q-0.49,0 -1.02,0.03q-0.53,0.03 -1,0.08q-0.48,0.05 -0.86,0.12l-0.55,0.1l0,14.52l-3.07,0l0,-16.7" fill="#231f20" id="svg_1"/>
  <path d="m35.89,2.9l-32.48,0l16.25,16.24l16.23,-16.24" fill="#f03b41" id="svg_2"/>
  <path d="m2.51,3.8l0,32.46l16.24,-16.23l-16.24,-16.23" fill="#e3eb1f" id="svg_3"/>
  <path d="m36.79,3.8l-33.38,33.38l33.38,0l0,-33.38z" id="svg_4" stroke="#231f20" stroke-width="0.93"/>
  <path d="m36.79,3.8l-33.38,33.38l33.38,0l0,-33.38" fill="#fff" id="svg_5"/>
 </g>
</svg>